#define cursor-hand-grab_width  24
#define cursor-hand-grab_height 24
static unsigned char cursor-hand-grab_bits[] = {
 0x00,0x00,0x00,0x00,0x00,0x00,0x00,0x00,0x00,0x00,0x18,0x00,
 0x80,0xff,0x01,0x80,0xef,0x03,0x80,0x6c,0x1f,0xe0,0x6c,0x1f,
 0xf0,0x6c,0x13,0xb8,0x6c,0x13,0x98,0x00,0x13,0x98,0x00,0x10,
 0x98,0x00,0x10,0x98,0x00,0x10,0x18,0x00,0x18,0x30,0x00,0x18,
 0x30,0x00,0x18,0x60,0x00,0x18,0x60,0x00,0x0c,0xc0,0x00,0x0c,
 0x80,0x01,0x06,0x00,0xff,0x07,0x00,0xfe,0x03,0x00,0x00,0x00};
